<svg xmlns="http://www.w3.org/2000/svg" width="800" height="400" viewBox="0 0 800 400" fill="none">
<path d="M3.49691e-05 400C3.95613e-05 347.471 10.3464 295.457 30.4482 246.927C50.5501 198.396 80.0139 154.301 117.157 117.157C154.301 80.0139 198.396 50.5501 246.927 30.4483C295.457 10.3464 347.471 8.2509e-05 400 8.71012e-05C452.529 9.16934e-05 504.543 10.3464 553.073 30.4483C601.604 50.5502 645.699 80.014 682.843 117.157C719.986 154.301 749.45 198.397 769.552 246.927C789.654 295.457 800 347.471 800 400L400 400L3.49691e-05 400Z" fill="#A5CCFF"/>
</svg>